<?xml version="1.0" encoding="utf-8"?>
<!-- Generator: Adobe Illustrator 26.0.2, SVG Export Plug-In . SVG Version: 6.00 Build 0)  -->
<svg version="1.1" id="Calque_1" xmlns="http://www.w3.org/2000/svg" xmlns:xlink="http://www.w3.org/1999/xlink" x="0px" y="0px"
	 viewBox="0 0 48 48" style="enable-background:new 0 0 48 48;" xml:space="preserve">
<g>
	<path fill="#ffffff" d="M34.46,11.22c-5.6-6.4-7.2-4-9.6-4s-20.8,17.6-20.8,17.6s-0.8,0.8,0.8,1.6c0.6,0.3,3.35-2.11,6.76-5.23
		c-0.16,4.22-0.64,18.55,0.04,19.23c0.8,0.8,9.6,0.8,9.6,0.8v-12c0,0,5.6,0,6.4,0s0.8,12,0.8,12l9.6-0.8l-0.67-20.67
		c1.23,1.93,2.19,3.56,2.67,4.27c1.6,2.4,3.2,2.4,4,1.6C44.86,24.82,40.06,17.62,34.46,11.22z M35.66,38.82c0,0-3.2,0.8-4,0
		c-0.8-0.8-0.8-11.2-1.6-12c-0.8-0.8-11.2,0-11.2,0v12c0,0-4.8,0-4.8-0.8c0-0.75,0.71-13.24-1.89-17.34
		c5.59-5.14,12.67-11.86,15.09-11.86c1.91,0,4.55,2.92,6.96,6.23L35.66,38.82z"/>
</g>
</svg>
